<svg width="495" height="170" viewBox="0 0 495 170" fill="none" xmlns="http://www.w3.org/2000/svg">
<g clip-path="url(#clip0_607_17226)">
<path fill-rule="evenodd" clip-rule="evenodd" d="M237.9 27.69V92.73L237.82 96.62L237.75 100.12L237.59 103.29L237.41 106.06L237.15 108.45L236.84 110.46L236.14 113.18L234.87 115.8L233.12 118.14L230.85 120.28L230.36 120.65L228.2 121.98L225.7 123.04L222.82 123.74L219.61 124.19L216.03 124.34L214.65 124.3L211.29 124.04L208.27 123.48L205.47 122.66L203 121.5L200.81 120.04L199.46 118.97L197.45 116.8L195.8 114.42L194.54 111.76L193.72 108.82L193.6 108.37L193.38 106.54L193.19 104.23L193.05 101.36L192.94 98L192.86 94.11V89.67V27.69H169.73V88.74L169.77 91.17L169.8 94.93L169.91 98.48L170.05 101.88L170.24 105.01L170.5 108L170.8 110.72L171.18 113.3L171.54 115.64L172 117.77L172.6 119.86L173.6 122.58L174.95 125.27L176.55 127.89L178.49 130.42L179.53 131.65L181.55 133.7L183.78 135.58L186.25 137.29L188.97 138.85L191.93 140.27L192.67 140.61L194.91 141.43L197.34 142.14L199.98 142.74L202.9 143.22L205.99 143.6L209.35 143.85L212.94 144.04L216.74 144.08H218.26L221.74 143.97L225.06 143.7L228.16 143.33L231.07 142.85L233.83 142.22L236.36 141.47L238.76 140.58L240.21 139.94L243.08 138.52L245.7 136.95L248.12 135.24L250.29 133.33L252.26 131.28L252.86 130.53L254.58 128.18L256.03 125.64L257.26 122.92L258.31 120.01L259.13 116.91L259.36 115.76L259.68 113.71L259.98 111.39L260.25 108.82L260.47 105.94L260.65 102.85L260.81 99.49L260.92 95.87L260.96 91.95L260.99 87.81V27.69H237.9Z" fill="#003865"/>
<path fill-rule="evenodd" clip-rule="evenodd" d="M355.96 27.69H277.53V142.14H300.62V93.52H348.39V74.15H300.62V47.07H355.96V27.69Z" fill="#003865"/>
<path fill-rule="evenodd" clip-rule="evenodd" d="M450.441 27.69L422.411 112.4L393.451 27.69H368.421L409.321 142.14H433.981L474.951 27.69H450.441Z" fill="#003865"/>
<path d="M150 20H20V150H150V20Z" fill="#003865"/>
<path d="M90.8204 78.47L90.7504 78.29L90.6504 78.13L68.8104 49.39L68.5004 49.01L68.1504 48.66L67.7804 48.34L67.3804 48.05L66.9604 47.8L66.5304 47.58L66.0704 47.4L65.6004 47.25L65.1204 47.15L64.6304 47.08L64.1304 47.06L63.6404 47.08L63.1504 47.14L62.6704 47.24L62.2004 47.37L61.7404 47.55L61.3004 47.77L60.8804 48.02L60.4804 48.3L60.1004 48.62L59.7504 48.97L59.4404 49.34L59.1504 49.74L58.9004 50.17L58.6904 50.61L58.5104 51.07L58.3704 51.54L58.2704 52.02L58.2104 52.51L58.1904 53L58.2204 53.49L58.2804 53.98L58.3804 54.46L58.5304 54.93L58.7104 55.38L58.9304 55.82L59.1904 56.24L59.4704 56.64L59.8004 57.01L60.1504 57.35L60.5304 57.67L89.2704 79.51L89.4304 79.61L89.6104 79.68L89.8004 79.71L89.9804 79.7L90.1704 79.66L90.3404 79.59L90.5004 79.49L90.6304 79.35L90.7304 79.2L90.8104 79.02L90.8504 78.84V78.65L90.8204 78.47Z" fill="white"/>
<path d="M100.57 68.72L100.51 68.55L100.41 68.39L78.5502 39.64L78.2402 39.26L77.9002 38.91L77.5302 38.59L77.1302 38.3L76.7102 38.04L76.2702 37.82L75.8102 37.64L75.3402 37.5L74.8602 37.39L74.3802 37.33L73.8802 37.31L73.3902 37.33L72.9102 37.38L72.4202 37.48L71.9502 37.62L71.4902 37.8L71.0502 38.01L70.6302 38.26L70.2302 38.55L69.8502 38.87L69.5102 39.21L69.1902 39.59L68.9002 39.99L68.6502 40.41L68.4402 40.85L68.2602 41.31L68.1202 41.78L68.0202 42.27L67.9702 42.75L67.9502 43.24L67.9702 43.73L68.0302 44.22L68.1402 44.7L68.2802 45.17L68.4602 45.64L68.6802 46.08L68.9402 46.5L69.2302 46.9L69.5502 47.27L69.9002 47.61L70.2802 47.92L99.0302 69.77L99.1902 69.87L99.3602 69.93L99.5502 69.96H99.7402L99.9202 69.92L100.09 69.85L100.25 69.74L100.38 69.61L100.49 69.45L100.56 69.28L100.6 69.1V68.91L100.57 68.72Z" fill="white"/>
<path d="M110.32 58.97L110.25 58.79L110.15 58.63L88.3104 29.9L87.9904 29.52L87.6504 29.16L87.2804 28.83L86.8804 28.55L86.4604 28.29L86.0204 28.07L85.5704 27.89L85.1004 27.74L84.6204 27.64L84.1304 27.58L83.6404 27.55L83.1504 27.57L82.6604 27.63L82.1804 27.73L81.7104 27.87L81.2404 28.05L80.8004 28.26L80.3704 28.51L79.9704 28.8L79.6004 29.11L79.2504 29.47L78.9304 29.85L78.6504 30.25L78.4004 30.67L78.1804 31.11L78.0004 31.57L77.8704 32.04L77.7704 32.52L77.7104 33.01L77.6904 33.5L77.7104 33.99L77.7804 34.48L77.8804 34.96L78.0304 35.43L78.2104 35.89L78.4304 36.32L78.6804 36.74L78.9704 37.14L79.2904 37.51L79.6404 37.86L80.0204 38.17L108.77 60.01L108.93 60.11L109.11 60.18L109.29 60.21H109.48L109.66 60.17L109.84 60.09L109.99 59.99L110.13 59.86L110.23 59.7L110.31 59.53L110.34 59.34L110.35 59.16L110.32 58.97Z" fill="white"/>
<path d="M122.92 63.65L122.86 63.15L122.76 62.67L122.62 62.2L122.45 61.74L122.23 61.3L121.98 60.88L121.7 60.48L121.38 60.1L121.03 59.76L120.66 59.44L120.26 59.15L119.83 58.9L119.39 58.69L118.93 58.51L118.46 58.37L117.98 58.27L117.49 58.21L117 58.2L116.51 58.22L116.01 58.28L115.53 58.39L115.06 58.53L114.61 58.71L114.17 58.93L113.75 59.19L113.35 59.48L112.98 59.8L112.63 60.15L112.32 60.53L90.4803 89.28L90.3803 89.44L90.3103 89.61L90.2803 89.8V89.99L90.3203 90.17L90.4003 90.34L90.5003 90.5L90.6403 90.63L90.7903 90.74L90.9603 90.81L91.1503 90.85H91.3403L91.5203 90.82L91.7003 90.75L91.8603 90.66L120.61 68.81L120.98 68.5L121.34 68.16L121.66 67.78L121.95 67.39L122.2 66.97L122.42 66.53L122.6 66.07L122.75 65.6L122.85 65.12L122.91 64.63L122.94 64.14L122.92 63.65Z" fill="white"/>
<path d="M132.66 73.4L132.6 72.91L132.51 72.43L132.37 71.95L132.19 71.5L131.98 71.05L131.72 70.63L131.44 70.23L131.12 69.86L130.77 69.51L130.4 69.19L130 68.91L129.58 68.66L129.13 68.44L128.68 68.26L128.2 68.12L127.72 68.03L127.24 67.97L126.74 67.95L126.25 67.97L125.77 68.04L125.29 68.14L124.82 68.28L124.36 68.47L123.92 68.69L123.5 68.94L123.1 69.23L122.73 69.55L122.39 69.9L122.07 70.28L100.23 99.03L100.13 99.19L100.07 99.37L100.03 99.55L100.04 99.74L100.08 99.92L100.15 100.1L100.26 100.25L100.39 100.38L100.54 100.49L100.72 100.56L100.9 100.6L101.09 100.61L101.28 100.57L101.45 100.51L101.61 100.41L130.35 78.56L130.73 78.24L131.08 77.9L131.4 77.53L131.69 77.13L131.94 76.71L132.16 76.27L132.35 75.81L132.49 75.34L132.59 74.86L132.66 74.38L132.68 73.89L132.66 73.4Z" fill="white"/>
<path d="M142.42 83.15L142.36 82.66L142.26 82.18L142.12 81.71L141.94 81.25L141.73 80.8L141.48 80.38L141.19 79.99L140.88 79.6L140.53 79.25L140.15 78.94L139.75 78.65L139.33 78.4L138.89 78.18L138.43 78.01L137.96 77.87L137.48 77.77L136.99 77.71L136.5 77.69L136.01 77.72L135.52 77.78L135.04 77.88L134.57 78.03L134.11 78.21L133.67 78.43L133.25 78.68L132.85 78.97L132.47 79.3L132.13 79.65L131.82 80.03L109.98 108.77L109.88 108.93L109.81 109.11L109.78 109.29V109.48L109.82 109.67L109.89 109.84L110 110L110.13 110.13L110.29 110.23L110.46 110.31L110.65 110.35H110.83L111.02 110.32L111.19 110.25L111.35 110.15L140.1 88.31L140.48 88L140.83 87.65L141.15 87.28L141.44 86.88L141.7 86.46L141.92 86.02L142.1 85.57L142.24 85.1L142.35 84.62L142.41 84.13L142.43 83.64L142.42 83.15Z" fill="white"/>
<path d="M111.77 116.51L111.71 116.02L111.6 115.54L111.46 115.07L111.28 114.61L111.06 114.17L110.8 113.75L110.51 113.35L110.19 112.98L109.84 112.64L109.46 112.32L80.7099 90.48L80.5499 90.38L80.3799 90.31L80.1899 90.28L79.9999 90.29L79.8199 90.33L79.6499 90.4L79.4899 90.5L79.3599 90.64L79.2499 90.79L79.1799 90.97L79.1399 91.15L79.1299 91.34L79.1699 91.52L79.2299 91.7L79.3299 91.86L101.19 120.61L101.5 120.99L101.84 121.34L102.21 121.66L102.61 121.95L103.03 122.2L103.47 122.42L103.93 122.61L104.4 122.75L104.88 122.85L105.36 122.92L105.86 122.94L106.35 122.92L106.83 122.86L107.32 122.76L107.79 122.63L108.25 122.45L108.69 122.23L109.11 121.98L109.51 121.7L109.89 121.38L110.23 121.03L110.55 120.66L110.84 120.26L111.09 119.83L111.3 119.39L111.48 118.93L111.62 118.46L111.72 117.98L111.77 117.49L111.79 117L111.77 116.51Z" fill="white"/>
<path d="M70.9697 100.23L70.8097 100.13L70.6297 100.07L70.4496 100.04H70.2596L70.0797 100.08L69.8997 100.15L69.7496 100.26L69.6096 100.39L69.5096 100.55L69.4296 100.72L69.3997 100.9L69.3896 101.09L69.4196 101.28L69.4897 101.45L69.5896 101.61L91.4296 130.35L91.7496 130.73L92.0896 131.08L92.4596 131.4L92.8596 131.69L93.2796 131.96L93.7197 132.17L94.1696 132.35L94.6396 132.49L95.1197 132.61L95.6096 132.67L96.0996 132.68H96.5896L97.0797 132.62L97.5596 132.52L98.0296 132.38L98.4996 132.2L98.9397 131.98L99.3697 131.73L99.7696 131.44L100.14 131.12L100.49 130.78L100.81 130.4L101.09 130L101.34 129.58L101.56 129.14L101.73 128.68L101.87 128.21L101.97 127.73L102.03 127.24L102.05 126.75L102.03 126.26L101.96 125.77L101.86 125.29L101.71 124.82L101.53 124.36L101.31 123.92L101.06 123.5L100.77 123.11L100.45 122.73L100.1 122.39L99.7197 122.08L70.9697 100.23Z" fill="white"/>
<path d="M92.2696 136.01L92.2096 135.52L92.0996 135.04L91.9596 134.57L91.7796 134.12L91.5596 133.68L91.2997 133.26L91.0097 132.86L90.6897 132.49L90.3396 132.13L89.9596 131.82L61.2096 109.98L61.0496 109.88L60.8797 109.81L60.6896 109.78H60.5096L60.3196 109.82L60.1497 109.9L59.9897 110L59.8596 110.13L59.7496 110.29L59.6796 110.46L59.6396 110.65V110.84L59.6696 111.02L59.7397 111.2L59.8396 111.36L81.6896 140.1L81.9996 140.48L82.3496 140.83L82.7197 141.16L83.1096 141.45L83.5296 141.7L83.9697 141.92L84.4296 142.1L84.8997 142.25L85.3796 142.35L85.8697 142.41L86.3596 142.44L86.8496 142.42L87.3396 142.36L87.8196 142.26L88.2896 142.12L88.7496 141.95L89.1897 141.73L89.6096 141.48L90.0097 141.19L90.3896 140.88L90.7396 140.53L91.0497 140.15L91.3396 139.75L91.5896 139.33L91.7997 138.89L91.9797 138.43L92.1197 137.96L92.2197 137.48L92.2796 136.99L92.2997 136.5L92.2696 136.01Z" fill="white"/>
<path d="M79.6996 80.01L79.6596 79.82L79.5896 79.65L79.4796 79.49L79.3496 79.36L79.1896 79.25L79.0196 79.18L78.8396 79.14H78.6496L78.4596 79.17L78.2896 79.24L78.1296 79.33L49.3896 101.19L49.0096 101.5L48.6596 101.84L48.3396 102.22L48.0496 102.61L47.7896 103.03L47.5796 103.47L47.3896 103.93L47.2496 104.4L47.1496 104.88L47.0796 105.37L47.0596 105.86L47.0796 106.35L47.1296 106.84L47.2296 107.32L47.3696 107.79L47.5496 108.25L47.7596 108.69L48.0196 109.11L48.2996 109.51L48.6196 109.89L48.9696 110.24L49.3396 110.55L49.7396 110.84L50.1596 111.09L50.6096 111.3L51.0596 111.48L51.5296 111.62L52.0196 111.72L52.4996 111.78L52.9996 111.79L53.4896 111.77L53.9696 111.71L54.4496 111.6L54.9196 111.46L55.3796 111.28L55.8196 111.06L56.2396 110.8L56.6396 110.51L57.0096 110.19L57.3496 109.84L57.6696 109.46L79.5096 80.71L79.6096 80.56L79.6696 80.38L79.7096 80.19L79.6996 80.01Z" fill="white"/>
<path d="M69.9198 70.4L69.8498 70.22L69.7398 70.07L69.6098 69.94L69.4498 69.83L69.2798 69.76L69.0898 69.72L68.9098 69.71L68.7198 69.75L68.5498 69.81L68.3898 69.91L39.6398 91.76L39.2598 92.08L38.9098 92.42L38.5898 92.79L38.2998 93.19L38.0398 93.61L37.8198 94.05L37.6398 94.51L37.4998 94.98L37.3898 95.46L37.3298 95.94L37.2998 96.43L37.3198 96.93L37.3798 97.41L37.4798 97.89L37.6198 98.37L37.7998 98.82L38.0098 99.27L38.2598 99.69L38.5498 100.09L38.8598 100.46L39.2098 100.81L39.5898 101.13L39.9898 101.41L40.4098 101.66L40.8498 101.88L41.3098 102.06L41.7798 102.2L42.2598 102.29L42.7498 102.35L43.2398 102.37L43.7298 102.35L44.2198 102.28L44.6998 102.18L45.1698 102.04L45.6298 101.85L46.0698 101.63L46.4898 101.38L46.8798 101.09L47.2498 100.77L47.5998 100.42L47.9198 100.04L69.7598 71.29L69.8598 71.13L69.9298 70.95L69.9598 70.77V70.58L69.9198 70.4Z" fill="white"/>
<path d="M60.1698 60.32L60.0898 60.15L59.9898 60L59.8498 59.86L59.6998 59.76L59.5198 59.68L59.3398 59.64H59.1498L58.9698 59.67L58.7898 59.74L58.6298 59.84L29.8898 81.69L29.4998 82L29.1498 82.35L28.8298 82.72L28.5398 83.12L28.2898 83.54L28.0698 83.98L27.8898 84.43L27.7398 84.9L27.6398 85.38L27.5698 85.87L27.5498 86.36L27.5698 86.85L27.6298 87.34L27.7298 87.82L27.8698 88.29L28.0398 88.75L28.2598 89.19L28.5098 89.62L28.7898 90.02L29.1098 90.39L29.4598 90.74L29.8398 91.06L30.2398 91.34L30.6698 91.59L31.1098 91.81L31.5698 91.98L32.0398 92.12L32.5198 92.22L33.0098 92.28L33.4998 92.3L33.9898 92.27L34.4798 92.21L34.9598 92.11L35.4298 91.96L35.8798 91.78L36.3198 91.56L36.7398 91.31L37.1398 91.02L37.5098 90.7L37.8598 90.34L38.1698 89.97L60.0098 61.22L60.1098 61.06L60.1798 60.88L60.2098 60.7V60.51L60.1698 60.32Z" fill="white"/>
</g>
<defs>
<clipPath id="clip0_607_17226">
<rect width="495" height="170" fill="white"/>
</clipPath>
</defs>
</svg>
